<svg xmlns="http://www.w3.org/2000/svg" viewBox="0 0 128 128">
  <path fill="#3178c6" d="M2 63.91v62.5h125v-125H2zm100.73-5a15.56 15.56 0 017.82 4.5 20.58 20.58 0 013 4c0 .16-5.4 3.81-8.69 5.3-.89.45-3.61 1.93-3.61 1.3a7.09 7.09 0 00-3.36-5.25 23.26 23.26 0 00-13.46-3.16 22.35 22.35 0 00-12.84 3.41 9.77 9.77 0 00-3.66 7.71 9.68 9.68 0 002.95 7.26c1.73 1.73 6.09 3.09 9.89 3.09 5.61 0 8.86-1.73 11.79-5.3v-3.61h-6.81v3.61a3.43 3.43 0 01-5.84 2.81 5.09 5.09 0 01-1.32-4.26 4.73 4.73 0 013.41-3.25 8.56 8.56 0 014.6-.63c3.64.43 6.6 1.73 9.89 4.5a13.81 13.81 0 014.6 10.13 22.61 22.61 0 01-1.41 9.12 18.35 18.35 0 01-5.3 6.89 25.11 25.11 0 01-14.51 4.26 22.35 22.35 0 01-14.51-4.26 18.57 18.57 0 01-5.3-6.89 9.65 9.65 0 01-.82-4.12h6.81a9.77 9.77 0 002.95 4.5 15.93 15.93 0 0010.13 3.41 15.56 15.56 0 007.82-4.5 20.58 20.58 0 013-4c0-.16 5.4-3.81 8.69-5.3.89-.45 3.61-1.93 3.61-1.3a7.09 7.09 0 003.36 5.25 23.26 23.26 0 0013.46 3.16 22.35 22.35 0 0012.84-3.41 9.77 9.77 0 003.66-7.71 9.68 9.68 0 00-2.95-7.26c-1.73-1.73-6.09-3.09-9.89-3.09-5.61 0-8.86 1.73-11.79 5.3v3.61h6.81v-3.61a3.43 3.43 0 015.84-2.81 5.09 5.09 0 011.32 4.26 4.73 4.73 0 01-3.41 3.25 8.56 8.56 0 01-4.6.63c-3.64-.43-6.6-1.73-9.89-4.5a13.81 13.81 0 01-4.6-10.13 22.61 22.61 0 011.41-9.12 18.35 18.35 0 015.3-6.89 25.11 25.11 0 0114.51-4.26 22.35 22.35 0 0114.51 4.26 18.57 18.57 0 015.3 6.89 9.65 9.65 0 01.82 4.12h-6.81a9.77 9.77 0 00-2.95-4.5 15.93 15.93 0 00-10.13-3.41z"/>
</svg> 